<?xml version="1.0" encoding="utf-8"?>
<!-- Generator: Adobe Illustrator 16.0.0, SVG Export Plug-In . SVG Version: 6.00 Build 0)  -->
<!DOCTYPE svg PUBLIC "-//W3C//DTD SVG 1.1//EN" "http://www.w3.org/Graphics/SVG/1.1/DTD/svg11.dtd">
<svg version="1.1" id="Layer_1" xmlns="http://www.w3.org/2000/svg" xmlns:xlink="http://www.w3.org/1999/xlink" x="0px" y="0px"
	 width="60px" height="60px" viewBox="0 0 60 60" enable-background="new 0 0 60 60" xml:space="preserve">
<g id="icomoon-ignore">
	<line fill="#FFFFFF" stroke="#449FDB" x1="0" y1="0" x2="0" y2="0"/>
</g>
<path fill="#FFFFFF" d="M57.086,5.786c-0.152-0.468-0.622-0.756-1.109-0.68c-0.484,0.076-0.845,0.496-0.845,0.988
	c0,7.892-11.276,14.314-25.132,14.314c-13.856,0-25.134-6.42-25.134-14.314c0-0.492-0.358-0.912-0.844-0.988
	c-0.486-0.076-0.956,0.21-1.108,0.68c-5.008,15.45,0.064,23.278,4.97,30.846c0.168,0.263,0.448,0.431,0.756,0.458
	c0.304,0.028,0.612-0.092,0.82-0.318c2.418-2.623,4.886-1.783,6.144-1.043c2.752,1.609,4.922,5.815,3.628,9.81
	c-0.14,0.43,0.028,0.897,0.406,1.146c0.378,0.246,0.876,0.209,1.212-0.092c1.7-1.516,3.48-2.025,4.892-1.396
	C27.812,46.124,29,49.3,29,53.906c0,0.552,0.448,1,1,1s1-0.448,1-1c0-4.61,1.188-7.786,3.258-8.711
	c1.41-0.627,3.192-0.121,4.891,1.396c0.336,0.303,0.834,0.338,1.209,0.092c0.379-0.248,0.545-0.714,0.406-1.146
	c-1.291-3.994,0.877-8.206,3.629-9.81c1.256-0.734,3.726-1.578,6.144,1.043c0.208,0.225,0.512,0.345,0.819,0.318
	c0.307-0.027,0.586-0.195,0.754-0.458C57.02,29.062,62.094,21.234,57.086,5.786z"/>
<path fill="#FFFFFF" d="M30,18.376c2.146,0,4.227-0.176,6.214-0.482c-0.888-2.552-1.458-5.756-1.25-7.738
	c0.044-0.424-0.185-0.83-0.569-1.01c-0.389-0.182-0.849-0.094-1.143,0.212c-1.63,1.698-2.63,3.774-3.25,5.734
	c-0.622-1.96-1.622-4.036-3.25-5.734C26.458,9.052,26,8.964,25.61,9.146c-0.386,0.18-0.618,0.586-0.572,1.01
	c0.208,1.979-0.358,5.184-1.248,7.736C25.774,18.2,27.856,18.376,30,18.376z"/>
</svg>
