<?xml version="1.0" encoding="utf-8"?>
<!-- Generator: Adobe Illustrator 16.0.0, SVG Export Plug-In . SVG Version: 6.00 Build 0)  -->
<!DOCTYPE svg PUBLIC "-//W3C//DTD SVG 1.1//EN" "http://www.w3.org/Graphics/SVG/1.1/DTD/svg11.dtd">
<svg version="1.1" id="Layer_1" xmlns="http://www.w3.org/2000/svg" xmlns:xlink="http://www.w3.org/1999/xlink" x="0px" y="0px"
	 width="60px" height="60px" viewBox="0 0 60 60" enable-background="new 0 0 60 60" xml:space="preserve">
<g id="icomoon-ignore">
	<line fill="#FFFFFF" stroke="#449FDB" x1="0" y1="0" x2="0" y2="0"/>
</g>
<path fill="#FFFFFF" d="M54.574,60h-18c-0.551,0-1-0.45-1-1V42h-10v17c0,0.55-0.448,1-1,1h-18c-0.552,0-1-0.45-1-1V28H1.25
	c-0.416,0-0.788-0.256-0.936-0.644c-0.146-0.388-0.04-0.826,0.272-1.104l28.662-25.5c0.366-0.326,0.916-0.336,1.298-0.026
	l7.028,5.768V1c0-0.552,0.449-1,1-1h10c0.552,0,1,0.448,1,1v15.822l9.869,9.456c0.295,0.284,0.389,0.716,0.236,1.096
	S59.16,28,58.752,28h-3.178v31C55.574,59.55,55.126,60,54.574,60z"/>
</svg>
