<?xml version="1.0" encoding="utf-8"?>
<!-- Generator: Adobe Illustrator 16.0.0, SVG Export Plug-In . SVG Version: 6.00 Build 0)  -->
<!DOCTYPE svg PUBLIC "-//W3C//DTD SVG 1.1//EN" "http://www.w3.org/Graphics/SVG/1.1/DTD/svg11.dtd">
<svg version="1.1" id="Layer_1" xmlns="http://www.w3.org/2000/svg" xmlns:xlink="http://www.w3.org/1999/xlink" x="0px" y="0px"
	 width="60px" height="60px" viewBox="0 0 60 60" enable-background="new 0 0 60 60" xml:space="preserve">
<g id="icomoon-ignore">
	<line fill="#FFFFFF" stroke="#449FDB" x1="0" y1="0" x2="0" y2="0"/>
</g>
<path fill="#FFFFFF" d="M7.954,46.359c-0.504,0-0.96-0.301-1.154-0.771c-0.194-0.47-0.084-1.002,0.272-1.361
	c0.948-0.953,2.632-3.23,3.824-5.734c-5.982-2.727-9.644-7.418-9.644-12.472c0-8.208,9.532-14.886,21.25-14.886
	c11.716,0,21.25,6.68,21.25,14.886c0,8.208-9.534,14.886-21.25,14.886c-0.7,0-1.386-0.034-2.068-0.082
	C16.96,44.498,12.768,46.359,7.954,46.359z"/>
<path fill="#FFFFFF" d="M58.75,29.98c0-6.874-7.18-12.576-16.542-13.648c2.55,2.772,4.042,6.108,4.042,9.69
	c0,7.55-6.622,13.972-15.822,16.369c3.261,1.1,6.921,1.617,10.47,1.367c3.215,3.387,7.105,5.108,11.56,5.108
	c0.506,0,0.958-0.302,1.155-0.772c0.195-0.466,0.087-1.004-0.275-1.363c-0.832-0.836-2.376-2.929-3.462-5.185
	C55.38,39.008,58.75,34.66,58.75,29.98z"/>
</svg>
